Coordinates
nRows=252
nColumns=2
inDegrees=yes
endheader
time	ankle_angle_r	
2.86089	 18.722565	
2.89415	 18.736322	
2.92742	 18.742731	
2.96069	 18.741055	
2.99395	 18.738229	
3.02722	 18.738280	
3.06048	 18.738417	
3.09375	 18.735267	
3.12702	 18.727770	
3.16028	 18.719627	
3.19355	 18.716446	
3.22681	 18.717757	
3.26008	 18.720465	
3.29335	 18.725056	
3.32661	 18.731453	
3.35988	 18.737622	
3.39315	 18.742565	
3.42641	 18.744384	
3.45968	 18.742182	
3.49294	 18.739050	
3.52621	 18.735937	
3.55948	 18.732782	
3.59274	 18.734546	
3.62601	 18.742642	
3.65927	 18.751541	
3.69254	 18.759249	
3.72581	 18.766629	
3.75907	 18.772380	
3.79234	 18.776150	
3.8256	 18.777653	
3.85887	 18.776692	
3.89214	 18.776179	
3.9254	 18.778403	
3.95867	 18.782515	
3.99194	 18.784787	
4.0252	 18.781478	
4.05847	 18.776979	
4.09173	 18.778868	
4.125	 18.785633	
4.15827	 18.791013	
4.19153	 18.791290	
4.2248	 18.785765	
4.25806	 18.779747	
4.29133	 18.779602	
4.3246	 18.783378	
4.35786	 18.787267	
4.39113	 18.792589	
4.4244	 18.799893	
4.45766	 18.807356	
4.49093	 18.813304	
4.52419	 18.816114	
4.55746	 18.816434	
4.59073	 18.815759	
4.62399	 18.813964	
4.65726	 18.812364	
4.69052	 18.811393	
4.72379	 18.808752	
4.75706	 18.806185	
4.79032	 18.807998	
4.82359	 18.814014	
4.85685	 18.821149	
4.89012	 18.825663	
4.92339	 18.824704	
4.95665	 18.819759	
4.98992	 18.814013	
5.02319	 18.809342	
5.05645	 18.808409	
5.08972	 18.811503	
5.12298	 18.813963	
5.15625	 18.814343	
5.18952	 18.815941	
5.22278	 18.818157	
5.25605	 18.819106	
5.28931	 18.820187	
5.32258	 18.819384	
5.35585	 18.812705	
5.38911	 18.800696	
5.42238	 18.785945	
5.45565	 18.772056	
5.48891	 18.762102	
5.52218	 18.755770	
5.55544	 18.752997	
5.58871	 18.753637	
5.62198	 18.754483	
5.65524	 18.753452	
5.68851	 18.751603	
5.72177	 18.750759	
5.75504	 18.751612	
5.78831	 18.751225	
5.82157	 18.746456	
5.85484	 18.739532	
5.8881	 18.734578	
5.92137	 18.733313	
5.95464	 18.734167	
5.9879	 18.733023	
6.02117	 18.729179	
6.05444	 18.726284	
6.0877	 18.725344	
6.12097	 18.724427	
6.15423	 18.723062	
6.1875	 18.723143	
6.22077	 18.728307	
6.25403	 18.738270	
6.2873	 18.745032	
6.32056	 18.743622	
6.35383	 18.739024	
6.3871	 18.735976	
6.42036	 18.733960	
6.45363	 18.731923	
6.4869	 18.727504	
6.52016	 18.719884	
6.55343	 18.715354	
6.58669	 18.718206	
6.61996	 18.724062	
6.65323	 18.728108	
6.68649	 18.729074	
6.71976	 18.727311	
6.75302	 18.724775	
6.78629	 18.722965	
6.81956	 18.722461	
6.85282	 18.725498	
6.88609	 18.731977	
6.91935	 18.737523	
6.95262	 18.741613	
6.98589	 18.746725	
7.01915	 18.751468	
7.05242	 18.754235	
7.08569	 18.756001	
7.11895	 18.759640	
7.15222	 18.767811	
7.18548	 18.776340	
7.21875	 18.779468	
7.25202	 18.779304	
7.28528	 18.778078	
7.31855	 18.773684	
7.35181	 18.767669	
7.38508	 18.766187	
7.41835	 18.774275	
7.45161	 18.790280	
7.48488	 18.804709	
7.51815	 18.809444	
7.55141	 18.806475	
7.58468	 18.803306	
7.61794	 18.803612	
7.65121	 18.804663	
7.68448	 18.801878	
7.71774	 18.795282	
7.75101	 18.788170	
7.78427	 18.781732	
7.81754	 18.777519	
7.85081	 18.777527	
7.88407	 18.779515	
7.91734	 18.780176	
7.9506	 18.777814	
7.98387	 18.772083	
8.01714	 18.766303	
8.0504	 18.763675	
8.08367	 18.763522	
8.11694	 18.765191	
8.1502	 18.767398	
8.18347	 18.766864	
8.21673	 18.764868	
8.25	 18.765483	
8.28327	 18.766715	
8.31653	 18.764878	
8.3498	 18.761690	
8.38306	 18.760555	
8.41633	 18.762537	
8.4496	 18.764667	
8.48286	 18.761794	
8.51613	 18.755064	
8.5494	 18.751724	
8.58266	 18.755144	
8.61593	 18.762517	
8.64919	 18.767653	
8.68246	 18.765189	
8.71573	 18.756834	
8.74899	 18.748680	
8.78226	 18.744464	
8.81552	 18.744129	
8.84879	 18.744209	
8.88206	 18.742264	
8.91532	 18.740236	
8.94859	 18.740372	
8.98185	 18.743565	
9.01512	 18.749102	
9.04839	 18.752743	
9.08165	 18.752736	
9.11492	 18.752784	
9.14819	 18.754132	
9.18145	 18.755337	
9.21472	 18.756621	
9.24798	 18.756131	
9.28125	 18.751678	
9.31452	 18.747042	
9.34778	 18.746865	
9.38105	 18.751366	
9.41431	 18.759191	
9.44758	 18.767533	
9.48085	 18.772549	
9.51411	 18.773212	
9.54738	 18.771147	
9.58065	 18.769687	
9.61391	 18.772016	
9.64718	 18.774636	
9.68044	 18.770863	
9.71371	 18.762595	
9.74698	 18.756453	
9.78024	 18.754178	
9.81351	 18.754937	
9.84677	 18.757363	
9.88004	 18.759521	
9.91331	 18.761266	
9.94657	 18.763931	
9.97984	 18.769614	
10.0131	 18.778626	
10.0464	 18.786618	
10.0796	 18.789778	
10.1129	 18.789370	
10.1462	 18.789747	
10.1794	 18.796462	
10.2127	 18.810791	
10.246	 18.826074	
10.2792	 18.835330	
10.3125	 18.837416	
10.3458	 18.835823	
10.379	 18.835629	
10.4123	 18.837142	
10.4456	 18.835978	
10.4788	 18.832509	
10.5121	 18.830552	
10.5454	 18.829749	
10.5786	 18.828424	
10.6119	 18.825032	
10.6452	 18.817235	
10.6784	 18.808687	
10.7117	 18.806059	
10.745	 18.807981	
10.7782	 18.809653	
10.8115	 18.809046	
10.8448	 18.804079	
10.878	 18.796237	
10.9113	 18.790305	
10.9446	 18.785954	
10.9778	 18.780884	
11.0111	 18.776408	
11.0444	 18.773427	
11.0776	 18.771816	
11.1109	 18.771446	
11.1442	 18.771015	
11.1774	 18.772199	
11.2107	 18.777568	
